<?xml version="1.0" encoding="UTF-8"?>
<svg xmlns="http://www.w3.org/2000/svg" xmlns:xlink="http://www.w3.org/1999/xlink" viewBox="0 0 60 60" width="60px" height="60px">
<g id="surface85766325">
<path style=" stroke:none;fill-rule:nonzero;fill:rgb(100%,99.215686%,99.215686%);fill-opacity:1;" d="M 50.308594 7.96875 C 49.660156 7.996094 49.054688 8.1875 48.519531 8.402344 C 48.019531 8.601562 46.113281 9.421875 43.105469 10.710938 C 40.097656 12 36.113281 13.710938 31.863281 15.539062 C 23.363281 19.195312 13.808594 23.308594 8.914062 25.414062 C 8.730469 25.492188 8.085938 25.699219 7.40625 26.230469 C 6.726562 26.761719 6 27.863281 6 29.09375 C 6 30.085938 6.472656 31.070312 7.066406 31.65625 C 7.660156 32.242188 8.289062 32.535156 8.828125 32.753906 C 10.78125 33.550781 16.84375 36.03125 17.988281 36.5 C 18.390625 37.734375 20.585938 44.445312 21.09375 46.089844 C 21.429688 47.175781 21.75 47.855469 22.164062 48.394531 C 22.371094 48.664062 22.613281 48.902344 22.90625 49.085938 C 23.023438 49.160156 23.152344 49.21875 23.28125 49.269531 L 23.289062 49.273438 C 23.320312 49.285156 23.34375 49.304688 23.375 49.316406 C 23.433594 49.335938 23.46875 49.339844 23.546875 49.355469 C 23.851562 49.453125 24.160156 49.515625 24.433594 49.515625 C 25.605469 49.515625 26.320312 48.871094 26.320312 48.871094 L 26.363281 48.839844 L 32.382812 43.632812 L 39.683594 50.539062 C 39.785156 50.683594 40.746094 52 42.859375 52 C 44.113281 52 45.109375 51.371094 45.75 50.699219 C 46.390625 50.027344 46.789062 49.324219 46.957031 48.4375 L 46.957031 48.433594 C 47.117188 47.597656 53.84375 13.054688 53.84375 13.054688 L 53.832031 13.101562 C 54.027344 12.203125 54.082031 11.367188 53.863281 10.539062 C 53.644531 9.710938 53.074219 8.921875 52.363281 8.496094 C 51.652344 8.070312 50.957031 7.941406 50.308594 7.96875 Z M 49.933594 12.148438 C 49.925781 12.207031 49.941406 12.175781 49.925781 12.246094 L 49.917969 12.292969 C 49.917969 12.292969 43.273438 46.394531 43.027344 47.691406 C 43.046875 47.59375 42.964844 47.789062 42.878906 47.90625 C 42.761719 47.824219 42.515625 47.71875 42.515625 47.71875 L 42.476562 47.675781 L 32.503906 38.242188 L 25.453125 44.335938 L 27.550781 35.9375 C 27.550781 35.9375 40.664062 22.363281 41.453125 21.574219 C 42.089844 20.941406 42.222656 20.722656 42.222656 20.503906 C 42.222656 20.210938 42.070312 20 41.730469 20 C 41.425781 20 41.011719 20.296875 40.792969 20.4375 C 37.925781 22.265625 25.34375 29.597656 19.703125 32.878906 C 18.808594 32.511719 12.578125 29.964844 10.46875 29.101562 C 10.484375 29.09375 10.480469 29.097656 10.496094 29.089844 C 15.390625 26.984375 24.941406 22.871094 33.441406 19.214844 C 37.691406 17.386719 41.675781 15.675781 44.683594 14.386719 C 47.644531 13.117188 49.699219 12.242188 49.933594 12.148438 Z M 49.933594 12.148438 "/>
</g>
</svg>
